<svg width="378" height="392" viewBox="0 0 378 392" fill="none" xmlns="http://www.w3.org/2000/svg">
<g filter="url(#filter0_i_111_361)">
<path d="M344.498 301.927C322.734 333.73 295.044 356.693 261.427 370.817C227.811 384.941 176.43 392.002 107.285 392H8C3.58173 392 0 388.418 0 384V327.998C0 323.58 3.58172 319.998 8 319.998H120.843C177.209 319.998 218.131 309.689 243.611 289.07C271.898 266.133 286.045 233.871 286.051 192.287C286.051 165.268 280.11 142.516 268.228 124.029C256.346 105.543 241.067 92.3912 222.39 84.5739C203.716 76.7524 173.645 72.8417 132.178 72.8417H100.252C95.8334 72.8417 92.2517 69.26 92.2517 64.8417V7.99999C92.2517 3.58172 95.8334 0 100.252 0H108.912C170.525 0 213.828 3.20297 238.822 9.60891C263.815 16.0148 287.028 27.5579 308.461 44.2382C329.899 60.9329 346.703 81.9412 358.874 107.263C371.045 132.585 377.132 160.344 377.134 190.538C377.134 233.002 366.255 270.131 344.498 301.927Z" fill="url(#paint0_linear_111_361)"/>
<path d="M45.041 222.4C45.041 218.254 41.6799 214.892 37.5337 214.892C33.3875 214.892 30.0263 218.254 30.0263 222.4C30.0263 226.546 33.3875 229.907 37.5337 229.907C41.6799 229.907 45.041 226.546 45.041 222.4Z" fill="url(#paint1_linear_111_361)"/>
<path d="M90.0664 252.432C90.0664 248.286 86.7053 244.925 82.5591 244.925C78.4129 244.925 75.0517 248.286 75.0517 252.432C75.0517 256.578 78.4129 259.94 82.5591 259.94C86.7053 259.94 90.0664 256.578 90.0664 252.432Z" fill="url(#paint2_linear_111_361)"/>
<path d="M30.0322 252.432C30.0322 248.286 26.6711 244.925 22.5249 244.925C18.3787 244.925 15.0175 248.286 15.0175 252.432C15.0175 256.578 18.3787 259.94 22.5249 259.94C26.6711 259.94 30.0322 256.578 30.0322 252.432Z" fill="url(#paint3_linear_111_361)"/>
<path d="M60.0498 222.4C60.0498 218.254 56.6886 214.892 52.5425 214.892C48.3963 214.892 45.0351 218.254 45.0351 222.4C45.0351 226.546 48.3963 229.907 52.5425 229.907C56.6886 229.907 60.0498 226.546 60.0498 222.4Z" fill="url(#paint4_linear_111_361)"/>
<path d="M60.0498 252.432C60.0498 248.286 56.6886 244.925 52.5425 244.925C48.3963 244.925 45.0351 248.286 45.0351 252.432C45.0351 256.578 48.3963 259.94 52.5425 259.94C56.6886 259.94 60.0498 256.578 60.0498 252.432Z" fill="url(#paint5_linear_111_361)"/>
<path d="M45.041 252.432C45.041 248.286 41.6799 244.925 37.5337 244.925C33.3875 244.925 30.0263 248.286 30.0263 252.432C30.0263 256.578 33.3875 259.94 37.5337 259.94C41.6799 259.94 45.041 256.578 45.041 252.432Z" fill="url(#paint6_linear_111_361)"/>
<path d="M45.041 222.4C45.041 218.254 41.6799 214.892 37.5337 214.892C33.3875 214.892 30.0263 218.254 30.0263 222.4C30.0263 226.546 33.3875 229.907 37.5337 229.907C41.6799 229.907 45.041 226.546 45.041 222.4Z" fill="url(#paint7_linear_111_361)"/>
<path d="M45.041 252.432C45.041 248.286 41.6799 244.925 37.5337 244.925C33.3875 244.925 30.0263 248.286 30.0263 252.432C30.0263 256.578 33.3875 259.94 37.5337 259.94C41.6799 259.94 45.041 256.578 45.041 252.432Z" fill="url(#paint8_linear_111_361)"/>
<path d="M30.0322 237.414C30.0322 233.268 26.6711 229.907 22.5249 229.907C18.3787 229.907 15.0175 233.268 15.0175 237.414C15.0175 241.561 18.3787 244.922 22.5249 244.922C26.6711 244.922 30.0322 241.561 30.0322 237.414Z" fill="url(#paint9_linear_111_361)"/>
<path d="M15.0244 237.414C15.0244 233.268 11.6633 229.907 7.51707 229.907C3.37088 229.907 0.00972366 233.268 0.00972366 237.414C0.00972366 241.561 3.37088 244.922 7.51707 244.922C11.6633 244.922 15.0244 241.561 15.0244 237.414Z" fill="url(#paint10_linear_111_361)"/>
<path d="M15.0244 237.414C15.0244 233.268 11.6633 229.907 7.51707 229.907C3.37088 229.907 0.00972366 233.268 0.00972366 237.414C0.00972366 241.561 3.37088 244.922 7.51707 244.922C11.6633 244.922 15.0244 241.561 15.0244 237.414Z" fill="url(#paint11_linear_111_361)"/>
<path d="M75.0576 237.414C75.0576 233.268 71.6965 229.907 67.5503 229.907C63.4041 229.907 60.0429 233.268 60.0429 237.414C60.0429 241.561 63.4041 244.922 67.5503 244.922C71.6965 244.922 75.0576 241.561 75.0576 237.414Z" fill="url(#paint12_linear_111_361)"/>
<path d="M45.041 237.414C45.041 233.268 41.6799 229.907 37.5337 229.907C33.3875 229.907 30.0263 233.268 30.0263 237.414C30.0263 241.561 33.3875 244.922 37.5337 244.922C41.6799 244.922 45.041 241.561 45.041 237.414Z" fill="url(#paint13_linear_111_361)"/>
<path d="M45.041 237.414C45.041 233.268 41.6799 229.907 37.5337 229.907C33.3875 229.907 30.0263 233.268 30.0263 237.414C30.0263 241.561 33.3875 244.922 37.5337 244.922C41.6799 244.922 45.041 241.561 45.041 237.414Z" fill="url(#paint14_linear_111_361)"/>
<path d="M75.0576 237.414C75.0576 233.268 71.6965 229.907 67.5503 229.907C63.4041 229.907 60.0429 233.268 60.0429 237.414C60.0429 241.561 63.4041 244.922 67.5503 244.922C71.6965 244.922 75.0576 241.561 75.0576 237.414Z" fill="url(#paint15_linear_111_361)"/>
<path d="M75.0576 207.382C75.0576 203.236 71.6965 199.875 67.5503 199.875C63.4041 199.875 60.0429 203.236 60.0429 207.382C60.0429 211.528 63.4041 214.889 67.5503 214.889C71.6965 214.889 75.0576 211.528 75.0576 207.382Z" fill="url(#paint16_linear_111_361)"/>
<path d="M90.0664 192.37C90.0664 188.224 86.7053 184.863 82.5591 184.863C78.4129 184.863 75.0517 188.224 75.0517 192.37C75.0517 196.516 78.4129 199.878 82.5591 199.878C86.7053 199.878 90.0664 196.516 90.0664 192.37Z" fill="url(#paint17_linear_111_361)"/>
<path d="M15.0146 207.382C15.0146 203.236 11.6535 199.875 7.5073 199.875C3.36111 199.875 -4.19617e-05 203.236 -4.19617e-05 207.382C-4.19617e-05 211.528 3.36111 214.889 7.5073 214.889C11.6535 214.889 15.0146 211.528 15.0146 207.382Z" fill="url(#paint18_linear_111_361)"/>
<path d="M15.0146 207.382C15.0146 203.236 11.6535 199.875 7.5073 199.875C3.36111 199.875 -4.19617e-05 203.236 -4.19617e-05 207.382C-4.19617e-05 211.528 3.36111 214.889 7.5073 214.889C11.6535 214.889 15.0146 211.528 15.0146 207.382Z" fill="url(#paint19_linear_111_361)"/>
<path d="M60.04 192.37C60.04 188.224 56.6789 184.863 52.5327 184.863C48.3865 184.863 45.0253 188.224 45.0253 192.37C45.0253 196.516 48.3865 199.878 52.5327 199.878C56.6789 199.878 60.04 196.516 60.04 192.37Z" fill="url(#paint20_linear_111_361)"/>
<path d="M45.0312 192.37C45.0312 188.224 41.6701 184.863 37.5239 184.863C33.3777 184.863 30.0166 188.224 30.0166 192.37C30.0166 196.516 33.3777 199.878 37.5239 199.878C41.6701 199.878 45.0312 196.516 45.0312 192.37Z" fill="url(#paint21_linear_111_361)"/>
<path d="M45.0312 192.37C45.0312 188.224 41.6701 184.863 37.5239 184.863C33.3777 184.863 30.0166 188.224 30.0166 192.37C30.0166 196.516 33.3777 199.878 37.5239 199.878C41.6701 199.878 45.0312 196.516 45.0312 192.37Z" fill="url(#paint22_linear_111_361)"/>
<path d="M90.0664 297.476C90.0664 293.33 86.7053 289.969 82.5591 289.969C78.4129 289.969 75.0517 293.33 75.0517 297.476C75.0517 301.622 78.4129 304.984 82.5591 304.984C86.7053 304.984 90.0664 301.622 90.0664 297.476Z" fill="url(#paint23_linear_111_361)"/>
<path d="M45.041 297.476C45.041 293.33 41.6799 289.969 37.5337 289.969C33.3875 289.969 30.0263 293.33 30.0263 297.476C30.0263 301.622 33.3875 304.984 37.5337 304.984C41.6799 304.984 45.041 301.622 45.041 297.476Z" fill="url(#paint24_linear_111_361)"/>
<path d="M60.0498 297.476C60.0498 293.33 56.6886 289.969 52.5425 289.969C48.3963 289.969 45.0351 293.33 45.0351 297.476C45.0351 301.622 48.3963 304.984 52.5425 304.984C56.6886 304.984 60.0498 301.622 60.0498 297.476Z" fill="url(#paint25_linear_111_361)"/>
<path d="M15.0244 297.476C15.0244 293.33 11.6633 289.969 7.51707 289.969C3.37088 289.969 0.00972366 293.33 0.00972366 297.476C0.00972366 301.622 3.37088 304.984 7.51707 304.984C11.6633 304.984 15.0244 301.622 15.0244 297.476Z" fill="url(#paint26_linear_111_361)"/>
<path d="M15.0244 297.476C15.0244 293.33 11.6633 289.969 7.51707 289.969C3.37088 289.969 0.00972366 293.33 0.00972366 297.476C0.00972366 301.622 3.37088 304.984 7.51707 304.984C11.6633 304.984 15.0244 301.622 15.0244 297.476Z" fill="url(#paint27_linear_111_361)"/>
<path d="M45.041 297.476C45.041 293.33 41.6799 289.969 37.5337 289.969C33.3875 289.969 30.0263 293.33 30.0263 297.476C30.0263 301.622 33.3875 304.984 37.5337 304.984C41.6799 304.984 45.041 301.622 45.041 297.476Z" fill="url(#paint28_linear_111_361)"/>
<path d="M90.0664 312.494C90.0664 308.348 86.7053 304.987 82.5591 304.987C78.4129 304.987 75.0517 308.348 75.0517 312.494C75.0517 316.64 78.4129 320.001 82.5591 320.001C86.7053 320.001 90.0664 316.64 90.0664 312.494Z" fill="url(#paint29_linear_111_361)"/>
<path d="M60.0498 312.494C60.0498 308.348 56.6886 304.987 52.5425 304.987C48.3963 304.987 45.0351 308.348 45.0351 312.494C45.0351 316.64 48.3963 320.001 52.5425 320.001C56.6886 320.001 60.0498 316.64 60.0498 312.494Z" fill="url(#paint30_linear_111_361)"/>
<path d="M15.0244 312.494C15.0244 308.348 11.6633 304.987 7.51707 304.987C3.37088 304.987 0.00972366 308.348 0.00972366 312.494C0.00972366 316.64 3.37088 320.001 7.51707 320.001C11.6633 320.001 15.0244 316.64 15.0244 312.494Z" fill="url(#paint31_linear_111_361)"/>
<path d="M15.0244 312.494C15.0244 308.348 11.6633 304.987 7.51707 304.987C3.37088 304.987 0.00972366 308.348 0.00972366 312.494C0.00972366 316.64 3.37088 320.001 7.51707 320.001C11.6633 320.001 15.0244 316.64 15.0244 312.494Z" fill="url(#paint32_linear_111_361)"/>
<path d="M90.0664 312.494C90.0664 308.348 86.7053 304.987 82.5591 304.987C78.4129 304.987 75.0517 308.348 75.0517 312.494C75.0517 316.64 78.4129 320.001 82.5591 320.001C86.7053 320.001 90.0664 316.64 90.0664 312.494Z" fill="url(#paint33_linear_111_361)"/>
<path d="M75.0576 312.494C75.0576 308.348 71.6965 304.987 67.5503 304.987C63.4041 304.987 60.0429 308.348 60.0429 312.494C60.0429 316.64 63.4041 320.001 67.5503 320.001C71.6965 320.001 75.0576 316.64 75.0576 312.494Z" fill="url(#paint34_linear_111_361)"/>
<path d="M45.041 312.494C45.041 308.348 41.6799 304.987 37.5337 304.987C33.3875 304.987 30.0263 308.348 30.0263 312.494C30.0263 316.64 33.3875 320.001 37.5337 320.001C41.6799 320.001 45.041 316.64 45.041 312.494Z" fill="url(#paint35_linear_111_361)"/>
<path d="M45.041 312.494C45.041 308.348 41.6799 304.987 37.5337 304.987C33.3875 304.987 30.0263 308.348 30.0263 312.494C30.0263 316.64 33.3875 320.001 37.5337 320.001C41.6799 320.001 45.041 316.64 45.041 312.494Z" fill="url(#paint36_linear_111_361)"/>
<path d="M75.0576 312.494C75.0576 308.348 71.6965 304.987 67.5503 304.987C63.4041 304.987 60.0429 308.348 60.0429 312.494C60.0429 316.64 63.4041 320.001 67.5503 320.001C71.6965 320.001 75.0576 316.64 75.0576 312.494Z" fill="url(#paint37_linear_111_361)"/>
<path d="M75.0576 282.462C75.0576 278.315 71.6965 274.954 67.5503 274.954C63.4041 274.954 60.0429 278.315 60.0429 282.462C60.0429 286.608 63.4041 289.969 67.5503 289.969C71.6965 289.969 75.0576 286.608 75.0576 282.462Z" fill="url(#paint38_linear_111_361)"/>
<path d="M90.0664 267.444C90.0664 263.298 86.7053 259.936 82.5591 259.936C78.4129 259.936 75.0517 263.298 75.0517 267.444C75.0517 271.59 78.4129 274.951 82.5591 274.951C86.7053 274.951 90.0664 271.59 90.0664 267.444Z" fill="url(#paint39_linear_111_361)"/>
<path d="M60.04 282.462C60.04 278.315 56.6789 274.954 52.5327 274.954C48.3865 274.954 45.0253 278.315 45.0253 282.462C45.0253 286.608 48.3865 289.969 52.5327 289.969C56.6789 289.969 60.04 286.608 60.04 282.462Z" fill="url(#paint40_linear_111_361)"/>
<path d="M30.0234 282.462C30.0234 278.315 26.6623 274.954 22.5161 274.954C18.3699 274.954 15.0087 278.315 15.0087 282.462C15.0087 286.608 18.3699 289.969 22.5161 289.969C26.6623 289.969 30.0234 286.608 30.0234 282.462Z" fill="url(#paint41_linear_111_361)"/>
<path d="M15.0146 282.462C15.0146 278.315 11.6535 274.954 7.5073 274.954C3.36111 274.954 -4.19617e-05 278.315 -4.19617e-05 282.462C-4.19617e-05 286.608 3.36111 289.969 7.5073 289.969C11.6535 289.969 15.0146 286.608 15.0146 282.462Z" fill="url(#paint42_linear_111_361)"/>
<path d="M15.0146 282.462C15.0146 278.315 11.6535 274.954 7.5073 274.954C3.36111 274.954 -4.19617e-05 278.315 -4.19617e-05 282.462C-4.19617e-05 286.608 3.36111 289.969 7.5073 289.969C11.6535 289.969 15.0146 286.608 15.0146 282.462Z" fill="url(#paint43_linear_111_361)"/>
<path d="M45.0312 267.444C45.0312 263.298 41.6701 259.936 37.5239 259.936C33.3777 259.936 30.0166 263.298 30.0166 267.444C30.0166 271.59 33.3777 274.951 37.5239 274.951C41.6701 274.951 45.0312 271.59 45.0312 267.444Z" fill="url(#paint44_linear_111_361)"/>
<path d="M15.0146 267.444C15.0146 263.298 11.6535 259.936 7.5073 259.936C3.36111 259.936 -4.19617e-05 263.298 -4.19617e-05 267.444C-4.19617e-05 271.59 3.36111 274.951 7.5073 274.951C11.6535 274.951 15.0146 271.59 15.0146 267.444Z" fill="url(#paint45_linear_111_361)"/>
<path d="M15.0146 267.444C15.0146 263.298 11.6535 259.936 7.5073 259.936C3.36111 259.936 -4.19617e-05 263.298 -4.19617e-05 267.444C-4.19617e-05 271.59 3.36111 274.951 7.5073 274.951C11.6535 274.951 15.0146 271.59 15.0146 267.444Z" fill="url(#paint46_linear_111_361)"/>
<path d="M45.0312 267.444C45.0312 263.298 41.6701 259.936 37.5239 259.936C33.3777 259.936 30.0166 263.298 30.0166 267.444C30.0166 271.59 33.3777 274.951 37.5239 274.951C41.6701 274.951 45.0312 271.59 45.0312 267.444Z" fill="url(#paint47_linear_111_361)"/>
<path d="M75.0576 117.288C75.0576 113.141 71.6965 109.78 67.5503 109.78C63.4041 109.78 60.0429 113.141 60.0429 117.288C60.0429 121.434 63.4041 124.795 67.5503 124.795C71.6965 124.795 75.0576 121.434 75.0576 117.288Z" fill="url(#paint48_linear_111_361)"/>
<path d="M75.0576 117.288C75.0576 113.141 71.6965 109.78 67.5503 109.78C63.4041 109.78 60.0429 113.141 60.0429 117.288C60.0429 121.434 63.4041 124.795 67.5503 124.795C71.6965 124.795 75.0576 121.434 75.0576 117.288Z" fill="url(#paint49_linear_111_361)"/>
<path d="M15.0205 117.288C15.0205 113.141 11.6594 109.78 7.51316 109.78C3.36697 109.78 0.00581646 113.141 0.00581646 117.288C0.00581646 121.434 3.36697 124.795 7.51316 124.795C11.6594 124.795 15.0205 121.434 15.0205 117.288Z" fill="url(#paint50_linear_111_361)"/>
<path d="M15.0205 117.288C15.0205 113.141 11.6594 109.78 7.51316 109.78C3.36697 109.78 0.00581646 113.141 0.00581646 117.288C0.00581646 121.434 3.36697 124.795 7.51316 124.795C11.6594 124.795 15.0205 121.434 15.0205 117.288Z" fill="url(#paint51_linear_111_361)"/>
<path d="M90.0664 102.27C90.0664 98.1236 86.7053 94.7624 82.5591 94.7624C78.4129 94.7624 75.0517 98.1236 75.0517 102.27C75.0517 106.416 78.4129 109.777 82.5591 109.777C86.7053 109.777 90.0664 106.416 90.0664 102.27Z" fill="url(#paint52_linear_111_361)"/>
<path d="M90.0664 102.27C90.0664 98.1236 86.7053 94.7624 82.5591 94.7624C78.4129 94.7624 75.0517 98.1236 75.0517 102.27C75.0517 106.416 78.4129 109.777 82.5591 109.777C86.7053 109.777 90.0664 106.416 90.0664 102.27Z" fill="url(#paint53_linear_111_361)"/>
<path d="M75.0576 72.2373C75.0576 68.0911 71.6965 64.7299 67.5503 64.7299C63.4041 64.7299 60.0429 68.0911 60.0429 72.2373C60.0429 76.3835 63.4041 79.7446 67.5503 79.7446C71.6965 79.7446 75.0576 76.3835 75.0576 72.2373Z" fill="url(#paint54_linear_111_361)"/>
<path d="M15.0176 57.2257C15.0176 53.0795 11.6564 49.7183 7.51023 49.7183C3.36404 49.7183 0.00288773 53.0795 0.00288773 57.2257C0.00288773 61.3719 3.36404 64.733 7.51023 64.733C11.6564 64.733 15.0176 61.3719 15.0176 57.2257Z" fill="url(#paint55_linear_111_361)"/>
<path d="M15.0176 57.2257C15.0176 53.0795 11.6564 49.7183 7.51023 49.7183C3.36404 49.7183 0.00288773 53.0795 0.00288773 57.2257C0.00288773 61.3719 3.36404 64.733 7.51023 64.733C11.6564 64.733 15.0176 61.3719 15.0176 57.2257Z" fill="url(#paint56_linear_111_361)"/>
<path d="M45.0381 162.332C45.0381 158.185 41.6769 154.824 37.5307 154.824C33.3846 154.824 30.0234 158.185 30.0234 162.332C30.0234 166.478 33.3846 169.839 37.5307 169.839C41.6769 169.839 45.0381 166.478 45.0381 162.332Z" fill="url(#paint57_linear_111_361)"/>
<path d="M45.0381 162.332C45.0381 158.185 41.6769 154.824 37.5307 154.824C33.3846 154.824 30.0234 158.185 30.0234 162.332C30.0234 166.478 33.3846 169.839 37.5307 169.839C41.6769 169.839 45.0381 166.478 45.0381 162.332Z" fill="url(#paint58_linear_111_361)"/>
<path d="M60.0459 177.346C60.0459 173.2 56.6847 169.839 52.5386 169.839C48.3924 169.839 45.0312 173.2 45.0312 177.346C45.0312 181.492 48.3924 184.854 52.5386 184.854C56.6847 184.854 60.0459 181.492 60.0459 177.346Z" fill="url(#paint59_linear_111_361)"/>
<path d="M75.0576 177.346C75.0576 173.2 71.6965 169.839 67.5503 169.839C63.4041 169.839 60.0429 173.2 60.0429 177.346C60.0429 181.492 63.4041 184.854 67.5503 184.854C71.6965 184.854 75.0576 181.492 75.0576 177.346Z" fill="url(#paint60_linear_111_361)"/>
<path d="M75.0576 147.317C75.0576 143.171 71.6965 139.81 67.5503 139.81C63.4041 139.81 60.0429 143.171 60.0429 147.317C60.0429 151.463 63.4041 154.824 67.5503 154.824C71.6965 154.824 75.0576 151.463 75.0576 147.317Z" fill="url(#paint61_linear_111_361)"/>
<path d="M90.0664 132.302C90.0664 128.156 86.7053 124.795 82.5591 124.795C78.4129 124.795 75.0517 128.156 75.0517 132.302C75.0517 136.448 78.4129 139.81 82.5591 139.81C86.7053 139.81 90.0664 136.448 90.0664 132.302Z" fill="url(#paint62_linear_111_361)"/>
<path d="M60.043 147.317C60.043 143.171 56.6818 139.81 52.5356 139.81C48.3894 139.81 45.0283 143.171 45.0283 147.317C45.0283 151.463 48.3894 154.824 52.5356 154.824C56.6818 154.824 60.043 151.463 60.043 147.317Z" fill="url(#paint63_linear_111_361)"/>
<path d="M30.0264 147.317C30.0264 143.171 26.6652 139.81 22.519 139.81C18.3728 139.81 15.0117 143.171 15.0117 147.317C15.0117 151.463 18.3728 154.824 22.519 154.824C26.6652 154.824 30.0264 151.463 30.0264 147.317Z" fill="url(#paint64_linear_111_361)"/>
<path d="M45.0352 132.302C45.0352 128.156 41.674 124.795 37.5278 124.795C33.3816 124.795 30.0205 128.156 30.0205 132.302C30.0205 136.448 33.3816 139.81 37.5278 139.81C41.674 139.81 45.0352 136.448 45.0352 132.302Z" fill="url(#paint65_linear_111_361)"/>
<path d="M45.0352 132.302C45.0352 128.156 41.674 124.795 37.5278 124.795C33.3816 124.795 30.0205 128.156 30.0205 132.302C30.0205 136.448 33.3816 139.81 37.5278 139.81C41.674 139.81 45.0352 136.448 45.0352 132.302Z" fill="url(#paint66_linear_111_361)"/>
</g>
<defs>
<filter id="filter0_i_111_361" x="0" y="0" width="377.134" height="396" filterUnits="userSpaceOnUse" color-interpolation-filters="sRGB">
<feFlood flood-opacity="0" result="BackgroundImageFix"/>
<feBlend mode="normal" in="SourceGraphic" in2="BackgroundImageFix" result="shape"/>
<feColorMatrix in="SourceAlpha" type="matrix" values="0 0 0 0 0 0 0 0 0 0 0 0 0 0 0 0 0 0 127 0" result="hardAlpha"/>
<feOffset dy="4"/>
<feGaussianBlur stdDeviation="94.5"/>
<feComposite in2="hardAlpha" operator="arithmetic" k2="-1" k3="1"/>
<feColorMatrix type="matrix" values="0 0 0 0 0 0 0 0 0 0 0 0 0 0 0 0 0 0 0.25 0"/>
<feBlend mode="normal" in2="shape" result="effect1_innerShadow_111_361"/>
</filter>
<linearGradient id="paint0_linear_111_361" x1="188.567" y1="0" x2="188.567" y2="392" gradientUnits="userSpaceOnUse">
<stop stop-color="#01A297"/>
<stop offset="0.499606" stop-color="#008AA9"/>
<stop offset="1" stop-color="#088CAA"/>
</linearGradient>
<linearGradient id="paint1_linear_111_361" x1="37.5337" y1="229.907" x2="37.5337" y2="214.892" gradientUnits="userSpaceOnUse">
<stop stop-color="#01A297"/>
<stop offset="0.499606" stop-color="#008AA9"/>
<stop offset="1" stop-color="#088CAA"/>
</linearGradient>
<linearGradient id="paint2_linear_111_361" x1="82.5591" y1="259.94" x2="82.5591" y2="244.925" gradientUnits="userSpaceOnUse">
<stop stop-color="#01A297"/>
<stop offset="0.499606" stop-color="#008AA9"/>
<stop offset="1" stop-color="#088CAA"/>
</linearGradient>
<linearGradient id="paint3_linear_111_361" x1="22.5249" y1="259.94" x2="22.5249" y2="244.925" gradientUnits="userSpaceOnUse">
<stop stop-color="#01A297"/>
<stop offset="0.499606" stop-color="#008AA9"/>
<stop offset="1" stop-color="#088CAA"/>
</linearGradient>
<linearGradient id="paint4_linear_111_361" x1="52.5425" y1="229.907" x2="52.5425" y2="214.892" gradientUnits="userSpaceOnUse">
<stop stop-color="#01A297"/>
<stop offset="0.499606" stop-color="#008AA9"/>
<stop offset="1" stop-color="#088CAA"/>
</linearGradient>
<linearGradient id="paint5_linear_111_361" x1="52.5425" y1="259.94" x2="52.5425" y2="244.925" gradientUnits="userSpaceOnUse">
<stop stop-color="#01A297"/>
<stop offset="0.499606" stop-color="#008AA9"/>
<stop offset="1" stop-color="#088CAA"/>
</linearGradient>
<linearGradient id="paint6_linear_111_361" x1="37.5337" y1="259.94" x2="37.5337" y2="244.925" gradientUnits="userSpaceOnUse">
<stop stop-color="#01A297"/>
<stop offset="0.499606" stop-color="#008AA9"/>
<stop offset="1" stop-color="#088CAA"/>
</linearGradient>
<linearGradient id="paint7_linear_111_361" x1="37.5337" y1="229.907" x2="37.5337" y2="214.892" gradientUnits="userSpaceOnUse">
<stop stop-color="#01A297"/>
<stop offset="0.499606" stop-color="#008AA9"/>
<stop offset="1" stop-color="#088CAA"/>
</linearGradient>
<linearGradient id="paint8_linear_111_361" x1="37.5337" y1="259.94" x2="37.5337" y2="244.925" gradientUnits="userSpaceOnUse">
<stop stop-color="#01A297"/>
<stop offset="0.499606" stop-color="#008AA9"/>
<stop offset="1" stop-color="#088CAA"/>
</linearGradient>
<linearGradient id="paint9_linear_111_361" x1="22.5249" y1="244.922" x2="22.5249" y2="229.907" gradientUnits="userSpaceOnUse">
<stop stop-color="#01A297"/>
<stop offset="0.499606" stop-color="#008AA9"/>
<stop offset="1" stop-color="#088CAA"/>
</linearGradient>
<linearGradient id="paint10_linear_111_361" x1="7.51707" y1="244.922" x2="7.51707" y2="229.907" gradientUnits="userSpaceOnUse">
<stop stop-color="#01A297"/>
<stop offset="0.499606" stop-color="#008AA9"/>
<stop offset="1" stop-color="#088CAA"/>
</linearGradient>
<linearGradient id="paint11_linear_111_361" x1="7.51707" y1="244.922" x2="7.51707" y2="229.907" gradientUnits="userSpaceOnUse">
<stop stop-color="#01A297"/>
<stop offset="0.499606" stop-color="#008AA9"/>
<stop offset="1" stop-color="#088CAA"/>
</linearGradient>
<linearGradient id="paint12_linear_111_361" x1="67.5503" y1="244.922" x2="67.5503" y2="229.907" gradientUnits="userSpaceOnUse">
<stop stop-color="#01A297"/>
<stop offset="0.499606" stop-color="#008AA9"/>
<stop offset="1" stop-color="#088CAA"/>
</linearGradient>
<linearGradient id="paint13_linear_111_361" x1="37.5337" y1="244.922" x2="37.5337" y2="229.907" gradientUnits="userSpaceOnUse">
<stop stop-color="#01A297"/>
<stop offset="0.499606" stop-color="#008AA9"/>
<stop offset="1" stop-color="#088CAA"/>
</linearGradient>
<linearGradient id="paint14_linear_111_361" x1="37.5337" y1="244.922" x2="37.5337" y2="229.907" gradientUnits="userSpaceOnUse">
<stop stop-color="#01A297"/>
<stop offset="0.499606" stop-color="#008AA9"/>
<stop offset="1" stop-color="#088CAA"/>
</linearGradient>
<linearGradient id="paint15_linear_111_361" x1="67.5503" y1="244.922" x2="67.5503" y2="229.907" gradientUnits="userSpaceOnUse">
<stop stop-color="#01A297"/>
<stop offset="0.499606" stop-color="#008AA9"/>
<stop offset="1" stop-color="#088CAA"/>
</linearGradient>
<linearGradient id="paint16_linear_111_361" x1="67.5503" y1="214.889" x2="67.5503" y2="199.875" gradientUnits="userSpaceOnUse">
<stop stop-color="#01A297"/>
<stop offset="0.499606" stop-color="#008AA9"/>
<stop offset="1" stop-color="#088CAA"/>
</linearGradient>
<linearGradient id="paint17_linear_111_361" x1="82.5591" y1="199.878" x2="82.5591" y2="184.863" gradientUnits="userSpaceOnUse">
<stop stop-color="#01A297"/>
<stop offset="0.499606" stop-color="#008AA9"/>
<stop offset="1" stop-color="#088CAA"/>
</linearGradient>
<linearGradient id="paint18_linear_111_361" x1="7.5073" y1="214.889" x2="7.5073" y2="199.875" gradientUnits="userSpaceOnUse">
<stop stop-color="#01A297"/>
<stop offset="0.499606" stop-color="#008AA9"/>
<stop offset="1" stop-color="#088CAA"/>
</linearGradient>
<linearGradient id="paint19_linear_111_361" x1="7.5073" y1="214.889" x2="7.5073" y2="199.875" gradientUnits="userSpaceOnUse">
<stop stop-color="#01A297"/>
<stop offset="0.499606" stop-color="#008AA9"/>
<stop offset="1" stop-color="#088CAA"/>
</linearGradient>
<linearGradient id="paint20_linear_111_361" x1="52.5327" y1="199.878" x2="52.5327" y2="184.863" gradientUnits="userSpaceOnUse">
<stop stop-color="#01A297"/>
<stop offset="0.499606" stop-color="#008AA9"/>
<stop offset="1" stop-color="#088CAA"/>
</linearGradient>
<linearGradient id="paint21_linear_111_361" x1="37.5239" y1="199.878" x2="37.5239" y2="184.863" gradientUnits="userSpaceOnUse">
<stop stop-color="#01A297"/>
<stop offset="0.499606" stop-color="#008AA9"/>
<stop offset="1" stop-color="#088CAA"/>
</linearGradient>
<linearGradient id="paint22_linear_111_361" x1="37.5239" y1="199.878" x2="37.5239" y2="184.863" gradientUnits="userSpaceOnUse">
<stop stop-color="#01A297"/>
<stop offset="0.499606" stop-color="#008AA9"/>
<stop offset="1" stop-color="#088CAA"/>
</linearGradient>
<linearGradient id="paint23_linear_111_361" x1="82.5591" y1="304.984" x2="82.5591" y2="289.969" gradientUnits="userSpaceOnUse">
<stop stop-color="#01A297"/>
<stop offset="0.499606" stop-color="#008AA9"/>
<stop offset="1" stop-color="#088CAA"/>
</linearGradient>
<linearGradient id="paint24_linear_111_361" x1="37.5337" y1="304.984" x2="37.5337" y2="289.969" gradientUnits="userSpaceOnUse">
<stop stop-color="#01A297"/>
<stop offset="0.499606" stop-color="#008AA9"/>
<stop offset="1" stop-color="#088CAA"/>
</linearGradient>
<linearGradient id="paint25_linear_111_361" x1="52.5425" y1="304.984" x2="52.5425" y2="289.969" gradientUnits="userSpaceOnUse">
<stop stop-color="#01A297"/>
<stop offset="0.499606" stop-color="#008AA9"/>
<stop offset="1" stop-color="#088CAA"/>
</linearGradient>
<linearGradient id="paint26_linear_111_361" x1="7.51707" y1="304.984" x2="7.51707" y2="289.969" gradientUnits="userSpaceOnUse">
<stop stop-color="#01A297"/>
<stop offset="0.499606" stop-color="#008AA9"/>
<stop offset="1" stop-color="#088CAA"/>
</linearGradient>
<linearGradient id="paint27_linear_111_361" x1="7.51707" y1="304.984" x2="7.51707" y2="289.969" gradientUnits="userSpaceOnUse">
<stop stop-color="#01A297"/>
<stop offset="0.499606" stop-color="#008AA9"/>
<stop offset="1" stop-color="#088CAA"/>
</linearGradient>
<linearGradient id="paint28_linear_111_361" x1="37.5337" y1="304.984" x2="37.5337" y2="289.969" gradientUnits="userSpaceOnUse">
<stop stop-color="#01A297"/>
<stop offset="0.499606" stop-color="#008AA9"/>
<stop offset="1" stop-color="#088CAA"/>
</linearGradient>
<linearGradient id="paint29_linear_111_361" x1="82.5591" y1="320.001" x2="82.5591" y2="304.987" gradientUnits="userSpaceOnUse">
<stop stop-color="#01A297"/>
<stop offset="0.499606" stop-color="#008AA9"/>
<stop offset="1" stop-color="#088CAA"/>
</linearGradient>
<linearGradient id="paint30_linear_111_361" x1="52.5425" y1="320.001" x2="52.5425" y2="304.987" gradientUnits="userSpaceOnUse">
<stop stop-color="#01A297"/>
<stop offset="0.499606" stop-color="#008AA9"/>
<stop offset="1" stop-color="#088CAA"/>
</linearGradient>
<linearGradient id="paint31_linear_111_361" x1="7.51707" y1="320.001" x2="7.51707" y2="304.987" gradientUnits="userSpaceOnUse">
<stop stop-color="#01A297"/>
<stop offset="0.499606" stop-color="#008AA9"/>
<stop offset="1" stop-color="#088CAA"/>
</linearGradient>
<linearGradient id="paint32_linear_111_361" x1="7.51707" y1="320.001" x2="7.51707" y2="304.987" gradientUnits="userSpaceOnUse">
<stop stop-color="#01A297"/>
<stop offset="0.499606" stop-color="#008AA9"/>
<stop offset="1" stop-color="#088CAA"/>
</linearGradient>
<linearGradient id="paint33_linear_111_361" x1="82.5591" y1="320.001" x2="82.5591" y2="304.987" gradientUnits="userSpaceOnUse">
<stop stop-color="#01A297"/>
<stop offset="0.499606" stop-color="#008AA9"/>
<stop offset="1" stop-color="#088CAA"/>
</linearGradient>
<linearGradient id="paint34_linear_111_361" x1="67.5503" y1="320.001" x2="67.5503" y2="304.987" gradientUnits="userSpaceOnUse">
<stop stop-color="#01A297"/>
<stop offset="0.499606" stop-color="#008AA9"/>
<stop offset="1" stop-color="#088CAA"/>
</linearGradient>
<linearGradient id="paint35_linear_111_361" x1="37.5337" y1="320.001" x2="37.5337" y2="304.987" gradientUnits="userSpaceOnUse">
<stop stop-color="#01A297"/>
<stop offset="0.499606" stop-color="#008AA9"/>
<stop offset="1" stop-color="#088CAA"/>
</linearGradient>
<linearGradient id="paint36_linear_111_361" x1="37.5337" y1="320.001" x2="37.5337" y2="304.987" gradientUnits="userSpaceOnUse">
<stop stop-color="#01A297"/>
<stop offset="0.499606" stop-color="#008AA9"/>
<stop offset="1" stop-color="#088CAA"/>
</linearGradient>
<linearGradient id="paint37_linear_111_361" x1="67.5503" y1="320.001" x2="67.5503" y2="304.987" gradientUnits="userSpaceOnUse">
<stop stop-color="#01A297"/>
<stop offset="0.499606" stop-color="#008AA9"/>
<stop offset="1" stop-color="#088CAA"/>
</linearGradient>
<linearGradient id="paint38_linear_111_361" x1="67.5503" y1="289.969" x2="67.5503" y2="274.954" gradientUnits="userSpaceOnUse">
<stop stop-color="#01A297"/>
<stop offset="0.499606" stop-color="#008AA9"/>
<stop offset="1" stop-color="#088CAA"/>
</linearGradient>
<linearGradient id="paint39_linear_111_361" x1="82.5591" y1="274.951" x2="82.5591" y2="259.936" gradientUnits="userSpaceOnUse">
<stop stop-color="#01A297"/>
<stop offset="0.499606" stop-color="#008AA9"/>
<stop offset="1" stop-color="#088CAA"/>
</linearGradient>
<linearGradient id="paint40_linear_111_361" x1="52.5327" y1="289.969" x2="52.5327" y2="274.954" gradientUnits="userSpaceOnUse">
<stop stop-color="#01A297"/>
<stop offset="0.499606" stop-color="#008AA9"/>
<stop offset="1" stop-color="#088CAA"/>
</linearGradient>
<linearGradient id="paint41_linear_111_361" x1="22.5161" y1="289.969" x2="22.5161" y2="274.954" gradientUnits="userSpaceOnUse">
<stop stop-color="#01A297"/>
<stop offset="0.499606" stop-color="#008AA9"/>
<stop offset="1" stop-color="#088CAA"/>
</linearGradient>
<linearGradient id="paint42_linear_111_361" x1="7.5073" y1="289.969" x2="7.5073" y2="274.954" gradientUnits="userSpaceOnUse">
<stop stop-color="#01A297"/>
<stop offset="0.499606" stop-color="#008AA9"/>
<stop offset="1" stop-color="#088CAA"/>
</linearGradient>
<linearGradient id="paint43_linear_111_361" x1="7.5073" y1="289.969" x2="7.5073" y2="274.954" gradientUnits="userSpaceOnUse">
<stop stop-color="#01A297"/>
<stop offset="0.499606" stop-color="#008AA9"/>
<stop offset="1" stop-color="#088CAA"/>
</linearGradient>
<linearGradient id="paint44_linear_111_361" x1="37.5239" y1="274.951" x2="37.5239" y2="259.936" gradientUnits="userSpaceOnUse">
<stop stop-color="#01A297"/>
<stop offset="0.499606" stop-color="#008AA9"/>
<stop offset="1" stop-color="#088CAA"/>
</linearGradient>
<linearGradient id="paint45_linear_111_361" x1="7.5073" y1="274.951" x2="7.5073" y2="259.936" gradientUnits="userSpaceOnUse">
<stop stop-color="#01A297"/>
<stop offset="0.499606" stop-color="#008AA9"/>
<stop offset="1" stop-color="#088CAA"/>
</linearGradient>
<linearGradient id="paint46_linear_111_361" x1="7.5073" y1="274.951" x2="7.5073" y2="259.936" gradientUnits="userSpaceOnUse">
<stop stop-color="#01A297"/>
<stop offset="0.499606" stop-color="#008AA9"/>
<stop offset="1" stop-color="#088CAA"/>
</linearGradient>
<linearGradient id="paint47_linear_111_361" x1="37.5239" y1="274.951" x2="37.5239" y2="259.936" gradientUnits="userSpaceOnUse">
<stop stop-color="#01A297"/>
<stop offset="0.499606" stop-color="#008AA9"/>
<stop offset="1" stop-color="#088CAA"/>
</linearGradient>
<linearGradient id="paint48_linear_111_361" x1="67.5503" y1="124.795" x2="67.5503" y2="109.78" gradientUnits="userSpaceOnUse">
<stop stop-color="#01A297"/>
<stop offset="0.499606" stop-color="#008AA9"/>
<stop offset="1" stop-color="#088CAA"/>
</linearGradient>
<linearGradient id="paint49_linear_111_361" x1="67.5503" y1="124.795" x2="67.5503" y2="109.78" gradientUnits="userSpaceOnUse">
<stop stop-color="#01A297"/>
<stop offset="0.499606" stop-color="#008AA9"/>
<stop offset="1" stop-color="#088CAA"/>
</linearGradient>
<linearGradient id="paint50_linear_111_361" x1="7.51316" y1="124.795" x2="7.51316" y2="109.78" gradientUnits="userSpaceOnUse">
<stop stop-color="#01A297"/>
<stop offset="0.499606" stop-color="#008AA9"/>
<stop offset="1" stop-color="#088CAA"/>
</linearGradient>
<linearGradient id="paint51_linear_111_361" x1="7.51316" y1="124.795" x2="7.51316" y2="109.78" gradientUnits="userSpaceOnUse">
<stop stop-color="#01A297"/>
<stop offset="0.499606" stop-color="#008AA9"/>
<stop offset="1" stop-color="#088CAA"/>
</linearGradient>
<linearGradient id="paint52_linear_111_361" x1="82.5591" y1="109.777" x2="82.5591" y2="94.7624" gradientUnits="userSpaceOnUse">
<stop stop-color="#01A297"/>
<stop offset="0.499606" stop-color="#008AA9"/>
<stop offset="1" stop-color="#088CAA"/>
</linearGradient>
<linearGradient id="paint53_linear_111_361" x1="82.5591" y1="109.777" x2="82.5591" y2="94.7624" gradientUnits="userSpaceOnUse">
<stop stop-color="#01A297"/>
<stop offset="0.499606" stop-color="#008AA9"/>
<stop offset="1" stop-color="#088CAA"/>
</linearGradient>
<linearGradient id="paint54_linear_111_361" x1="67.5503" y1="79.7446" x2="67.5503" y2="64.7299" gradientUnits="userSpaceOnUse">
<stop stop-color="#01A297"/>
<stop offset="0.499606" stop-color="#008AA9"/>
<stop offset="1" stop-color="#088CAA"/>
</linearGradient>
<linearGradient id="paint55_linear_111_361" x1="7.51023" y1="64.733" x2="7.51023" y2="49.7183" gradientUnits="userSpaceOnUse">
<stop stop-color="#01A297"/>
<stop offset="0.499606" stop-color="#008AA9"/>
<stop offset="1" stop-color="#088CAA"/>
</linearGradient>
<linearGradient id="paint56_linear_111_361" x1="7.51023" y1="64.733" x2="7.51023" y2="49.7183" gradientUnits="userSpaceOnUse">
<stop stop-color="#01A297"/>
<stop offset="0.499606" stop-color="#008AA9"/>
<stop offset="1" stop-color="#088CAA"/>
</linearGradient>
<linearGradient id="paint57_linear_111_361" x1="37.5307" y1="169.839" x2="37.5307" y2="154.824" gradientUnits="userSpaceOnUse">
<stop stop-color="#01A297"/>
<stop offset="0.499606" stop-color="#008AA9"/>
<stop offset="1" stop-color="#088CAA"/>
</linearGradient>
<linearGradient id="paint58_linear_111_361" x1="37.5307" y1="169.839" x2="37.5307" y2="154.824" gradientUnits="userSpaceOnUse">
<stop stop-color="#01A297"/>
<stop offset="0.499606" stop-color="#008AA9"/>
<stop offset="1" stop-color="#088CAA"/>
</linearGradient>
<linearGradient id="paint59_linear_111_361" x1="52.5386" y1="184.854" x2="52.5386" y2="169.839" gradientUnits="userSpaceOnUse">
<stop stop-color="#01A297"/>
<stop offset="0.499606" stop-color="#008AA9"/>
<stop offset="1" stop-color="#088CAA"/>
</linearGradient>
<linearGradient id="paint60_linear_111_361" x1="67.5503" y1="184.854" x2="67.5503" y2="169.839" gradientUnits="userSpaceOnUse">
<stop stop-color="#01A297"/>
<stop offset="0.499606" stop-color="#008AA9"/>
<stop offset="1" stop-color="#088CAA"/>
</linearGradient>
<linearGradient id="paint61_linear_111_361" x1="67.5503" y1="154.824" x2="67.5503" y2="139.81" gradientUnits="userSpaceOnUse">
<stop stop-color="#01A297"/>
<stop offset="0.499606" stop-color="#008AA9"/>
<stop offset="1" stop-color="#088CAA"/>
</linearGradient>
<linearGradient id="paint62_linear_111_361" x1="82.5591" y1="139.81" x2="82.5591" y2="124.795" gradientUnits="userSpaceOnUse">
<stop stop-color="#01A297"/>
<stop offset="0.499606" stop-color="#008AA9"/>
<stop offset="1" stop-color="#088CAA"/>
</linearGradient>
<linearGradient id="paint63_linear_111_361" x1="52.5356" y1="154.824" x2="52.5356" y2="139.81" gradientUnits="userSpaceOnUse">
<stop stop-color="#01A297"/>
<stop offset="0.499606" stop-color="#008AA9"/>
<stop offset="1" stop-color="#088CAA"/>
</linearGradient>
<linearGradient id="paint64_linear_111_361" x1="22.519" y1="154.824" x2="22.519" y2="139.81" gradientUnits="userSpaceOnUse">
<stop stop-color="#01A297"/>
<stop offset="0.499606" stop-color="#008AA9"/>
<stop offset="1" stop-color="#088CAA"/>
</linearGradient>
<linearGradient id="paint65_linear_111_361" x1="37.5278" y1="139.81" x2="37.5278" y2="124.795" gradientUnits="userSpaceOnUse">
<stop stop-color="#01A297"/>
<stop offset="0.499606" stop-color="#008AA9"/>
<stop offset="1" stop-color="#088CAA"/>
</linearGradient>
<linearGradient id="paint66_linear_111_361" x1="37.5278" y1="139.81" x2="37.5278" y2="124.795" gradientUnits="userSpaceOnUse">
<stop stop-color="#01A297"/>
<stop offset="0.499606" stop-color="#008AA9"/>
<stop offset="1" stop-color="#088CAA"/>
</linearGradient>
</defs>
</svg>
