<svg width="378" height="392" viewBox="0 0 378 392" fill="none" xmlns="http://www.w3.org/2000/svg">
<path d="M344.498 301.927C322.734 333.73 295.044 356.693 261.427 370.817C227.811 384.941 176.43 392.002 107.285 392H23C10.2975 392 0 381.703 0 369V342.998C0 330.296 10.2975 319.998 23 319.998H120.843C177.209 319.998 218.131 309.689 243.611 289.07C271.898 266.133 286.045 233.871 286.051 192.287C286.051 165.268 280.11 142.516 268.228 124.029C256.346 105.543 241.067 92.3912 222.39 84.5739C203.716 76.7524 173.645 72.8417 132.178 72.8417H115.252C102.549 72.8417 92.2517 62.5443 92.2517 49.8417V16.6606C92.2517 7.45921 99.7109 0 108.912 0C170.525 0 213.828 3.20297 238.822 9.60891C263.815 16.0148 287.028 27.5579 308.461 44.2382C329.899 60.9329 346.703 81.9412 358.874 107.263C371.045 132.585 377.132 160.344 377.134 190.538C377.134 233.002 366.255 270.131 344.498 301.927Z" fill="white"/>
<path d="M45.0411 222.4C45.0411 218.254 41.6799 214.892 37.5337 214.892C33.3875 214.892 30.0264 218.254 30.0264 222.4C30.0264 226.546 33.3875 229.907 37.5337 229.907C41.6799 229.907 45.0411 226.546 45.0411 222.4Z" fill="white"/>
<path d="M90.0665 252.432C90.0665 248.286 86.7053 244.925 82.5591 244.925C78.4129 244.925 75.0518 248.286 75.0518 252.432C75.0518 256.578 78.4129 259.94 82.5591 259.94C86.7053 259.94 90.0665 256.578 90.0665 252.432Z" fill="white"/>
<path d="M30.0323 252.432C30.0323 248.286 26.6711 244.925 22.5249 244.925C18.3787 244.925 15.0176 248.286 15.0176 252.432C15.0176 256.578 18.3787 259.94 22.5249 259.94C26.6711 259.94 30.0323 256.578 30.0323 252.432Z" fill="white"/>
<path d="M60.0498 222.4C60.0498 218.254 56.6887 214.892 52.5425 214.892C48.3963 214.892 45.0352 218.254 45.0352 222.4C45.0352 226.546 48.3963 229.907 52.5425 229.907C56.6887 229.907 60.0498 226.546 60.0498 222.4Z" fill="white"/>
<path d="M60.0498 252.432C60.0498 248.286 56.6887 244.925 52.5425 244.925C48.3963 244.925 45.0352 248.286 45.0352 252.432C45.0352 256.578 48.3963 259.94 52.5425 259.94C56.6887 259.94 60.0498 256.578 60.0498 252.432Z" fill="white"/>
<path d="M45.0411 252.432C45.0411 248.286 41.6799 244.925 37.5337 244.925C33.3875 244.925 30.0264 248.286 30.0264 252.432C30.0264 256.578 33.3875 259.94 37.5337 259.94C41.6799 259.94 45.0411 256.578 45.0411 252.432Z" fill="white"/>
<path d="M45.0411 222.4C45.0411 218.254 41.6799 214.892 37.5337 214.892C33.3875 214.892 30.0264 218.254 30.0264 222.4C30.0264 226.546 33.3875 229.907 37.5337 229.907C41.6799 229.907 45.0411 226.546 45.0411 222.4Z" fill="white"/>
<path d="M45.0411 252.432C45.0411 248.286 41.6799 244.925 37.5337 244.925C33.3875 244.925 30.0264 248.286 30.0264 252.432C30.0264 256.578 33.3875 259.94 37.5337 259.94C41.6799 259.94 45.0411 256.578 45.0411 252.432Z" fill="white"/>
<path d="M30.0323 237.414C30.0323 233.268 26.6711 229.907 22.5249 229.907C18.3787 229.907 15.0176 233.268 15.0176 237.414C15.0176 241.561 18.3787 244.922 22.5249 244.922C26.6711 244.922 30.0323 241.561 30.0323 237.414Z" fill="white"/>
<path d="M15.0245 237.414C15.0245 233.268 11.6633 229.907 7.51711 229.907C3.37092 229.907 0.00976562 233.268 0.00976562 237.414C0.00976562 241.561 3.37092 244.922 7.51711 244.922C11.6633 244.922 15.0245 241.561 15.0245 237.414Z" fill="white"/>
<path d="M15.0245 237.414C15.0245 233.268 11.6633 229.907 7.51711 229.907C3.37092 229.907 0.00976562 233.268 0.00976562 237.414C0.00976562 241.561 3.37092 244.922 7.51711 244.922C11.6633 244.922 15.0245 241.561 15.0245 237.414Z" fill="white"/>
<path d="M75.0577 237.414C75.0577 233.268 71.6965 229.907 67.5503 229.907C63.4041 229.907 60.043 233.268 60.043 237.414C60.043 241.561 63.4041 244.922 67.5503 244.922C71.6965 244.922 75.0577 241.561 75.0577 237.414Z" fill="white"/>
<path d="M45.0411 237.414C45.0411 233.268 41.6799 229.907 37.5337 229.907C33.3875 229.907 30.0264 233.268 30.0264 237.414C30.0264 241.561 33.3875 244.922 37.5337 244.922C41.6799 244.922 45.0411 241.561 45.0411 237.414Z" fill="white"/>
<path d="M45.0411 237.414C45.0411 233.268 41.6799 229.907 37.5337 229.907C33.3875 229.907 30.0264 233.268 30.0264 237.414C30.0264 241.561 33.3875 244.922 37.5337 244.922C41.6799 244.922 45.0411 241.561 45.0411 237.414Z" fill="white"/>
<path d="M75.0577 237.414C75.0577 233.268 71.6965 229.907 67.5503 229.907C63.4041 229.907 60.043 233.268 60.043 237.414C60.043 241.561 63.4041 244.922 67.5503 244.922C71.6965 244.922 75.0577 241.561 75.0577 237.414Z" fill="white"/>
<path d="M75.0577 207.382C75.0577 203.236 71.6965 199.875 67.5503 199.875C63.4041 199.875 60.043 203.236 60.043 207.382C60.043 211.528 63.4041 214.889 67.5503 214.889C71.6965 214.889 75.0577 211.528 75.0577 207.382Z" fill="white"/>
<path d="M90.0665 192.37C90.0665 188.224 86.7053 184.863 82.5591 184.863C78.4129 184.863 75.0518 188.224 75.0518 192.37C75.0518 196.516 78.4129 199.878 82.5591 199.878C86.7053 199.878 90.0665 196.516 90.0665 192.37Z" fill="white"/>
<path d="M15.0147 207.382C15.0147 203.236 11.6535 199.875 7.50735 199.875C3.36115 199.875 0 203.236 0 207.382C0 211.528 3.36115 214.889 7.50735 214.889C11.6535 214.889 15.0147 211.528 15.0147 207.382Z" fill="white"/>
<path d="M15.0147 207.382C15.0147 203.236 11.6535 199.875 7.50735 199.875C3.36115 199.875 0 203.236 0 207.382C0 211.528 3.36115 214.889 7.50735 214.889C11.6535 214.889 15.0147 211.528 15.0147 207.382Z" fill="white"/>
<path d="M60.0401 192.37C60.0401 188.224 56.6789 184.863 52.5327 184.863C48.3865 184.863 45.0254 188.224 45.0254 192.37C45.0254 196.516 48.3865 199.878 52.5327 199.878C56.6789 199.878 60.0401 196.516 60.0401 192.37Z" fill="white"/>
<path d="M45.0313 192.37C45.0313 188.224 41.6701 184.863 37.5239 184.863C33.3778 184.863 30.0166 188.224 30.0166 192.37C30.0166 196.516 33.3778 199.878 37.5239 199.878C41.6701 199.878 45.0313 196.516 45.0313 192.37Z" fill="white"/>
<path d="M45.0313 192.37C45.0313 188.224 41.6701 184.863 37.5239 184.863C33.3778 184.863 30.0166 188.224 30.0166 192.37C30.0166 196.516 33.3778 199.878 37.5239 199.878C41.6701 199.878 45.0313 196.516 45.0313 192.37Z" fill="white"/>
<path d="M90.0665 297.476C90.0665 293.33 86.7053 289.969 82.5591 289.969C78.4129 289.969 75.0518 293.33 75.0518 297.476C75.0518 301.623 78.4129 304.984 82.5591 304.984C86.7053 304.984 90.0665 301.623 90.0665 297.476Z" fill="white"/>
<path d="M45.0411 297.476C45.0411 293.33 41.6799 289.969 37.5337 289.969C33.3875 289.969 30.0264 293.33 30.0264 297.476C30.0264 301.623 33.3875 304.984 37.5337 304.984C41.6799 304.984 45.0411 301.623 45.0411 297.476Z" fill="white"/>
<path d="M60.0498 297.476C60.0498 293.33 56.6887 289.969 52.5425 289.969C48.3963 289.969 45.0352 293.33 45.0352 297.476C45.0352 301.623 48.3963 304.984 52.5425 304.984C56.6887 304.984 60.0498 301.623 60.0498 297.476Z" fill="white"/>
<path d="M15.0245 297.476C15.0245 293.33 11.6633 289.969 7.51711 289.969C3.37092 289.969 0.00976562 293.33 0.00976562 297.476C0.00976562 301.623 3.37092 304.984 7.51711 304.984C11.6633 304.984 15.0245 301.623 15.0245 297.476Z" fill="white"/>
<path d="M15.0245 297.476C15.0245 293.33 11.6633 289.969 7.51711 289.969C3.37092 289.969 0.00976562 293.33 0.00976562 297.476C0.00976562 301.623 3.37092 304.984 7.51711 304.984C11.6633 304.984 15.0245 301.623 15.0245 297.476Z" fill="white"/>
<path d="M45.0411 297.476C45.0411 293.33 41.6799 289.969 37.5337 289.969C33.3875 289.969 30.0264 293.33 30.0264 297.476C30.0264 301.623 33.3875 304.984 37.5337 304.984C41.6799 304.984 45.0411 301.623 45.0411 297.476Z" fill="white"/>
<path d="M90.0665 312.494C90.0665 308.348 86.7053 304.987 82.5591 304.987C78.4129 304.987 75.0518 308.348 75.0518 312.494C75.0518 316.64 78.4129 320.001 82.5591 320.001C86.7053 320.001 90.0665 316.64 90.0665 312.494Z" fill="white"/>
<path d="M60.0498 312.494C60.0498 308.348 56.6887 304.987 52.5425 304.987C48.3963 304.987 45.0352 308.348 45.0352 312.494C45.0352 316.64 48.3963 320.001 52.5425 320.001C56.6887 320.001 60.0498 316.64 60.0498 312.494Z" fill="white"/>
<path d="M15.0245 312.494C15.0245 308.348 11.6633 304.987 7.51711 304.987C3.37092 304.987 0.00976562 308.348 0.00976562 312.494C0.00976562 316.64 3.37092 320.001 7.51711 320.001C11.6633 320.001 15.0245 316.64 15.0245 312.494Z" fill="white"/>
<path d="M15.0245 312.494C15.0245 308.348 11.6633 304.987 7.51711 304.987C3.37092 304.987 0.00976562 308.348 0.00976562 312.494C0.00976562 316.64 3.37092 320.001 7.51711 320.001C11.6633 320.001 15.0245 316.64 15.0245 312.494Z" fill="white"/>
<path d="M90.0665 312.494C90.0665 308.348 86.7053 304.987 82.5591 304.987C78.4129 304.987 75.0518 308.348 75.0518 312.494C75.0518 316.64 78.4129 320.001 82.5591 320.001C86.7053 320.001 90.0665 316.64 90.0665 312.494Z" fill="white"/>
<path d="M75.0577 312.494C75.0577 308.348 71.6965 304.987 67.5503 304.987C63.4041 304.987 60.043 308.348 60.043 312.494C60.043 316.64 63.4041 320.001 67.5503 320.001C71.6965 320.001 75.0577 316.64 75.0577 312.494Z" fill="white"/>
<path d="M45.0411 312.494C45.0411 308.348 41.6799 304.987 37.5337 304.987C33.3875 304.987 30.0264 308.348 30.0264 312.494C30.0264 316.64 33.3875 320.001 37.5337 320.001C41.6799 320.001 45.0411 316.64 45.0411 312.494Z" fill="white"/>
<path d="M45.0411 312.494C45.0411 308.348 41.6799 304.987 37.5337 304.987C33.3875 304.987 30.0264 308.348 30.0264 312.494C30.0264 316.64 33.3875 320.001 37.5337 320.001C41.6799 320.001 45.0411 316.64 45.0411 312.494Z" fill="white"/>
<path d="M75.0577 312.494C75.0577 308.348 71.6965 304.987 67.5503 304.987C63.4041 304.987 60.043 308.348 60.043 312.494C60.043 316.64 63.4041 320.001 67.5503 320.001C71.6965 320.001 75.0577 316.64 75.0577 312.494Z" fill="white"/>
<path d="M75.0577 282.462C75.0577 278.315 71.6965 274.954 67.5503 274.954C63.4041 274.954 60.043 278.315 60.043 282.462C60.043 286.608 63.4041 289.969 67.5503 289.969C71.6965 289.969 75.0577 286.608 75.0577 282.462Z" fill="white"/>
<path d="M90.0665 267.444C90.0665 263.298 86.7053 259.936 82.5591 259.936C78.4129 259.936 75.0518 263.298 75.0518 267.444C75.0518 271.59 78.4129 274.951 82.5591 274.951C86.7053 274.951 90.0665 271.59 90.0665 267.444Z" fill="white"/>
<path d="M60.0401 282.462C60.0401 278.315 56.6789 274.954 52.5327 274.954C48.3865 274.954 45.0254 278.315 45.0254 282.462C45.0254 286.608 48.3865 289.969 52.5327 289.969C56.6789 289.969 60.0401 286.608 60.0401 282.462Z" fill="white"/>
<path d="M30.0235 282.462C30.0235 278.315 26.6623 274.954 22.5161 274.954C18.3699 274.954 15.0088 278.315 15.0088 282.462C15.0088 286.608 18.3699 289.969 22.5161 289.969C26.6623 289.969 30.0235 286.608 30.0235 282.462Z" fill="white"/>
<path d="M15.0147 282.462C15.0147 278.315 11.6535 274.954 7.50735 274.954C3.36115 274.954 0 278.315 0 282.462C0 286.608 3.36115 289.969 7.50735 289.969C11.6535 289.969 15.0147 286.608 15.0147 282.462Z" fill="white"/>
<path d="M15.0147 282.462C15.0147 278.315 11.6535 274.954 7.50735 274.954C3.36115 274.954 0 278.315 0 282.462C0 286.608 3.36115 289.969 7.50735 289.969C11.6535 289.969 15.0147 286.608 15.0147 282.462Z" fill="white"/>
<path d="M45.0313 267.444C45.0313 263.298 41.6701 259.936 37.5239 259.936C33.3778 259.936 30.0166 263.298 30.0166 267.444C30.0166 271.59 33.3778 274.951 37.5239 274.951C41.6701 274.951 45.0313 271.59 45.0313 267.444Z" fill="white"/>
<path d="M15.0147 267.444C15.0147 263.298 11.6535 259.936 7.50735 259.936C3.36115 259.936 0 263.298 0 267.444C0 271.59 3.36115 274.951 7.50735 274.951C11.6535 274.951 15.0147 271.59 15.0147 267.444Z" fill="white"/>
<path d="M15.0147 267.444C15.0147 263.298 11.6535 259.936 7.50735 259.936C3.36115 259.936 0 263.298 0 267.444C0 271.59 3.36115 274.951 7.50735 274.951C11.6535 274.951 15.0147 271.59 15.0147 267.444Z" fill="white"/>
<path d="M45.0313 267.444C45.0313 263.298 41.6701 259.936 37.5239 259.936C33.3778 259.936 30.0166 263.298 30.0166 267.444C30.0166 271.59 33.3778 274.951 37.5239 274.951C41.6701 274.951 45.0313 271.59 45.0313 267.444Z" fill="white"/>
<path d="M75.0577 117.288C75.0577 113.141 71.6965 109.78 67.5503 109.78C63.4041 109.78 60.043 113.141 60.043 117.288C60.043 121.434 63.4041 124.795 67.5503 124.795C71.6965 124.795 75.0577 121.434 75.0577 117.288Z" fill="white"/>
<path d="M75.0577 117.288C75.0577 113.141 71.6965 109.78 67.5503 109.78C63.4041 109.78 60.043 113.141 60.043 117.288C60.043 121.434 63.4041 124.795 67.5503 124.795C71.6965 124.795 75.0577 121.434 75.0577 117.288Z" fill="white"/>
<path d="M15.0205 117.288C15.0205 113.141 11.6594 109.78 7.5132 109.78C3.36701 109.78 0.00585842 113.141 0.00585842 117.288C0.00585842 121.434 3.36701 124.795 7.5132 124.795C11.6594 124.795 15.0205 121.434 15.0205 117.288Z" fill="white"/>
<path d="M15.0205 117.288C15.0205 113.141 11.6594 109.78 7.5132 109.78C3.36701 109.78 0.00585842 113.141 0.00585842 117.288C0.00585842 121.434 3.36701 124.795 7.5132 124.795C11.6594 124.795 15.0205 121.434 15.0205 117.288Z" fill="white"/>
<path d="M90.0665 102.27C90.0665 98.1236 86.7053 94.7624 82.5591 94.7624C78.4129 94.7624 75.0518 98.1236 75.0518 102.27C75.0518 106.416 78.4129 109.777 82.5591 109.777C86.7053 109.777 90.0665 106.416 90.0665 102.27Z" fill="white"/>
<path d="M90.0665 102.27C90.0665 98.1236 86.7053 94.7624 82.5591 94.7624C78.4129 94.7624 75.0518 98.1236 75.0518 102.27C75.0518 106.416 78.4129 109.777 82.5591 109.777C86.7053 109.777 90.0665 106.416 90.0665 102.27Z" fill="white"/>
<path d="M75.0577 72.2373C75.0577 68.0911 71.6965 64.7299 67.5503 64.7299C63.4041 64.7299 60.043 68.0911 60.043 72.2373C60.043 76.3835 63.4041 79.7446 67.5503 79.7446C71.6965 79.7446 75.0577 76.3835 75.0577 72.2373Z" fill="white"/>
<path d="M15.0176 57.2257C15.0176 53.0795 11.6565 49.7184 7.51027 49.7184C3.36408 49.7184 0.00292969 53.0795 0.00292969 57.2257C0.00292969 61.3719 3.36408 64.733 7.51027 64.733C11.6565 64.733 15.0176 61.3719 15.0176 57.2257Z" fill="white"/>
<path d="M15.0176 57.2257C15.0176 53.0795 11.6565 49.7184 7.51027 49.7184C3.36408 49.7184 0.00292969 53.0795 0.00292969 57.2257C0.00292969 61.3719 3.36408 64.733 7.51027 64.733C11.6565 64.733 15.0176 61.3719 15.0176 57.2257Z" fill="white"/>
<path d="M45.0381 162.332C45.0381 158.185 41.677 154.824 37.5308 154.824C33.3846 154.824 30.0234 158.185 30.0234 162.332C30.0234 166.478 33.3846 169.839 37.5308 169.839C41.677 169.839 45.0381 166.478 45.0381 162.332Z" fill="white"/>
<path d="M45.0381 162.332C45.0381 158.185 41.677 154.824 37.5308 154.824C33.3846 154.824 30.0234 158.185 30.0234 162.332C30.0234 166.478 33.3846 169.839 37.5308 169.839C41.677 169.839 45.0381 166.478 45.0381 162.332Z" fill="white"/>
<path d="M60.0469 177.346C60.0469 173.2 56.6858 169.839 52.5396 169.839C48.3934 169.839 45.0322 173.2 45.0322 177.346C45.0322 181.492 48.3934 184.854 52.5396 184.854C56.6858 184.854 60.0469 181.492 60.0469 177.346Z" fill="white"/>
<path d="M75.0577 177.346C75.0577 173.2 71.6965 169.839 67.5503 169.839C63.4041 169.839 60.043 173.2 60.043 177.346C60.043 181.492 63.4041 184.854 67.5503 184.854C71.6965 184.854 75.0577 181.492 75.0577 177.346Z" fill="white"/>
<path d="M75.0577 147.317C75.0577 143.171 71.6965 139.81 67.5503 139.81C63.4041 139.81 60.043 143.171 60.043 147.317C60.043 151.463 63.4041 154.824 67.5503 154.824C71.6965 154.824 75.0577 151.463 75.0577 147.317Z" fill="white"/>
<path d="M90.0665 132.302C90.0665 128.156 86.7053 124.795 82.5591 124.795C78.4129 124.795 75.0518 128.156 75.0518 132.302C75.0518 136.448 78.4129 139.81 82.5591 139.81C86.7053 139.81 90.0665 136.448 90.0665 132.302Z" fill="white"/>
<path d="M60.043 147.317C60.043 143.171 56.6819 139.81 52.5357 139.81C48.3895 139.81 45.0283 143.171 45.0283 147.317C45.0283 151.463 48.3895 154.824 52.5357 154.824C56.6819 154.824 60.043 151.463 60.043 147.317Z" fill="white"/>
<path d="M30.0264 147.317C30.0264 143.171 26.6653 139.81 22.5191 139.81C18.3729 139.81 15.0117 143.171 15.0117 147.317C15.0117 151.463 18.3729 154.824 22.5191 154.824C26.6653 154.824 30.0264 151.463 30.0264 147.317Z" fill="white"/>
<path d="M45.0352 132.302C45.0352 128.156 41.674 124.795 37.5279 124.795C33.3817 124.795 30.0205 128.156 30.0205 132.302C30.0205 136.448 33.3817 139.81 37.5279 139.81C41.674 139.81 45.0352 136.448 45.0352 132.302Z" fill="white"/>
<path d="M45.0352 132.302C45.0352 128.156 41.674 124.795 37.5279 124.795C33.3817 124.795 30.0205 128.156 30.0205 132.302C30.0205 136.448 33.3817 139.81 37.5279 139.81C41.674 139.81 45.0352 136.448 45.0352 132.302Z" fill="white"/>
</svg>
